# xmcd CD database file
#
# Track frame offsets:
#	150
#	18997
#	41705
#	66092
#	82172
#	90572
#	103587
#	138247
#	154337
#	173617
#	201075
#	211880
#
# Disc length: 3422 seconds
#
# Revision: 0
# Processed by: cddbd v1.5.1PL2 Copyright (c) Steve Scherf et al.
# Submitted via: CDex 1.70beta2
#
DISCID=9d0d5c0c
DTITLE=André Gagnon - Hiver
DYEAR=1999
DGENRE=New Age
TTITLE0=Il neige sur Kamouraska
TTITLE1=Rêver en hiver
TTITLE2=L'éternel retour
TTITLE3=La ronde des bergers
TTITLE4=Toccatarock
TTITLE5=La douce illusion
TTITLE6=Flashback
TTITLE7=Dédéthoven
TTITLE8=Un an déjà
TTITLE9=Sérénade pour cordes
TTITLE10=Petit concerto pour Carignan et orchestre
TTITLE11=Neiges
EXTD=YEAR: 1999
EXTT0=
EXTT1=
EXTT2=
EXTT3=
EXTT4=
EXTT5=
EXTT6=
EXTT7=
EXTT8=
EXTT9=
EXTT10=
EXTT11=
PLAYORDER=
